<?xml version="1.0" encoding="UTF-8"?>
<svg version="1.1" xmlns="http://www.w3.org/2000/svg" width="166" height="171">
<path d="M0 0 C11.84664465 10.1125141 19.55216258 24.28553581 20.90893555 39.85327148 C21.43790311 51.97215523 20.80457543 62.82328639 16.6875 74.3125 C16.275 75.49457031 15.8625 76.67664063 15.4375 77.89453125 C9.80742397 92.91339885 2.07786671 107.32080985 -7.3125 120.3125 C-7.74788086 120.92158203 -8.18326172 121.53066406 -8.63183594 122.15820312 C-14.80221642 130.7552329 -21.30522513 138.79771321 -28.62109375 146.4453125 C-30.51319666 148.46099252 -32.29295798 150.45977047 -34.04296875 152.58984375 C-37.31915981 156.52014524 -37.31915981 156.52014524 -40.3125 157.3125 C-47.39016887 157.45127782 -51.26170491 153.73795855 -56.3125 149.3125 C-57.68535156 148.12140625 -57.68535156 148.12140625 -59.0859375 146.90625 C-64.587446 142.02271916 -69.70028582 137.0428267 -74.3125 131.3125 C-75.48425781 129.86230469 -75.48425781 129.86230469 -76.6796875 128.3828125 C-96.36388873 103.62357148 -112.38451815 71.65866473 -108.6875 39.1875 C-106.71753861 24.52518177 -99.97464463 9.77941741 -88.3125 0.3125 C-62.52002583 -18.84525413 -25.7806897 -19.03804778 0 0 Z " fill="#2FB9C7" transform="translate(127.3125,13.6875)"/>
<path d="M0 0 C13.74188672 -0.32914699 25.40176837 5.11941226 35.33203125 14.3359375 C44.21624535 24.78627909 47.46982311 36.68938469 46.76953125 50.203125 C45.599756 61.44063805 39.82868592 71.2859643 31.69921875 78.93359375 C25.74020267 83.54984487 18.42293284 88.203125 10.76953125 88.203125 C10.79047852 89.21213867 10.81142578 90.22115234 10.83300781 91.26074219 C10.9054991 95.01027187 10.95136345 98.75973982 10.98925781 102.50976562 C11.00935269 104.13161643 11.03663379 105.75339497 11.07128906 107.375 C11.11990395 109.7085148 11.14252014 112.04107057 11.16015625 114.375 C11.18080139 115.09806335 11.20144653 115.82112671 11.22271729 116.56610107 C11.22425268 120.02391218 11.02495597 121.86555633 8.91113281 124.65917969 C6.20684661 126.60878137 4.58157135 126.73952105 1.26953125 126.703125 C0.33109375 126.7134375 -0.60734375 126.72375 -1.57421875 126.734375 C-5.07809436 126.03359988 -6.07738669 125.04863281 -8.23046875 122.203125 C-8.57986804 119.45226309 -8.69932054 117.1147694 -8.62109375 114.375 C-8.61543396 113.62599426 -8.60977417 112.87698853 -8.60394287 112.10528564 C-8.58160932 109.720573 -8.53142261 107.33738092 -8.48046875 104.953125 C-8.46039966 103.33335509 -8.4421496 101.71356154 -8.42578125 100.09375 C-8.38175499 96.12962534 -8.31275173 92.16663268 -8.23046875 88.203125 C-8.83157471 88.01411621 -9.43268066 87.82510742 -10.05200195 87.63037109 C-22.0563055 83.76192698 -30.8621362 77.25352739 -37.23046875 66.203125 C-43.10972436 54.70591403 -44.19455562 42.23762807 -40.265625 29.79296875 C-35.58825848 18.09072724 -28.27487038 10.41445223 -17.16796875 4.765625 C-16.49523926 4.42321777 -15.82250977 4.08081055 -15.12939453 3.72802734 C-10.12315935 1.32469165 -5.53539796 0.50409929 0 0 Z " fill="#0B0E1C" transform="translate(81.23046875,21.796875)"/>
<path d="M0 0 C6.27666041 4.5021603 11.71173933 9.65415639 13.57421875 17.3828125 C15.19824363 27.36535077 13.48824654 35.09681354 8.375 43.75 C0.59090489 51.1244059 -7.00511428 53.32554598 -17.48828125 53.20703125 C-25.80074277 52.71697512 -31.47103599 49.19096857 -37 43 C-42.11398633 34.96794654 -42.58508973 27.39334974 -42 18 C-41.36209705 15.13194815 -40.54089439 13.60358017 -39 11 C-38.52433594 10.12988281 -38.52433594 10.12988281 -38.0390625 9.2421875 C-34.45520668 3.37076414 -28.52093369 -0.52268702 -22.015625 -2.6484375 C-14.55715266 -3.94933384 -6.75013574 -3.59687517 0 0 Z " fill="#2FB8C6" transform="translate(98,42)"/>
<path d="M0 0 C3.30184991 -0.57782373 5.31905351 -0.46909647 8.109375 1.453125 C11.20179921 4.1392453 13.71840629 6.57760943 16 10 C16.125 13.1875 16.125 13.1875 16 16 C14.68 16.33 13.36 16.66 12 17 C11.48050781 16.38511719 10.96101563 15.77023438 10.42578125 15.13671875 C9.72839844 14.32847656 9.03101562 13.52023438 8.3125 12.6875 C7.62800781 11.88699219 6.94351563 11.08648437 6.23828125 10.26171875 C3.98322332 7.98304764 1.80847657 6.51982357 -1 5 C-0.67 3.35 -0.34 1.7 0 0 Z " fill="#0C1220" transform="translate(83,50)"/>
</svg>
